<svg width="31" height="44" viewBox="0 0 31 44" fill="none" xmlns="http://www.w3.org/2000/svg">
    <g clip-path="url(#clip0_logo)">
        <mask id="mask0_logo" style="mask-type:luminance" maskUnits="userSpaceOnUse" x="0" y="0"
            width="10" height="10">
            <path
                d="M0.195312 4.82922C0.195312 7.33705 2.22023 9.39475 4.75941 9.39475C7.26646 9.39475 9.32352 7.3692 9.32352 4.82922C9.32352 2.32138 7.2986 0.263672 4.75941 0.263672C2.22023 0.263672 0.195312 2.32138 0.195312 4.82922Z"
                fill="white" />
        </mask>
        <g mask="url(#mask0_logo)">
            <path
                d="M9.22717 -0.540039L10.095 9.29839L0.259663 10.1665L-0.608154 0.328061L9.22717 -0.540039Z"
                fill="url(#paint0_linear_logo)" />
        </g>
        <mask id="mask1_logo" style="mask-type:luminance" maskUnits="userSpaceOnUse" x="1" y="11"
            width="11" height="28">
            <path
                d="M1.09521 11.1953V25.6957C1.09521 26.7567 1.19164 27.7856 1.41663 28.8144C1.48091 29.1681 1.57733 29.4896 1.67376 29.8112C1.96303 30.7757 2.34874 31.7403 2.83086 32.6084C2.99157 32.8977 3.15228 33.1871 3.31298 33.4764C3.40941 33.6372 3.53797 33.798 3.6344 33.9587C3.73082 34.1195 3.85939 34.3124 3.98796 34.441C4.69507 35.3734 5.49862 36.2415 6.43072 36.981C6.59143 37.1417 6.75214 37.2703 6.94499 37.399C7.52354 37.8491 8.13422 38.2349 8.77705 38.5886C8.87348 38.6529 9.00205 38.685 9.09847 38.7493C9.06633 38.5564 9.06633 38.3957 9.06633 38.2027C9.06633 36.2415 9.93416 34.4732 11.2841 33.2192C11.7984 32.737 11.7984 31.9653 11.2198 31.5152C9.45203 30.1648 8.29493 28.0428 8.29493 25.6314V12.9637V11.1953H1.09521Z"
                fill="white" />
        </mask>
        <g mask="url(#mask1_logo)">
            <path
                d="M11.7984 10.2627L14.2733 38.5562L1.19169 39.7137L-1.2832 11.388L11.7984 10.2627Z"
                fill="url(#paint1_linear_logo)" />
        </g>
        <path
            d="M30.4726 25.6959C30.4726 26.7569 30.3762 27.7858 30.1512 28.8146C30.0869 29.1683 29.9905 29.4898 29.8941 29.8113C29.7012 30.4865 29.4762 31.0974 29.187 31.7083C29.0584 32.0298 28.8977 32.3192 28.737 32.6085C28.5763 32.8979 28.4156 33.1872 28.2549 33.4766C27.4192 34.827 26.3585 36.0166 25.1371 37.0133C25.0086 37.1419 24.8478 37.2384 24.6871 37.367C23.98 37.9135 23.2408 38.3958 22.4051 38.8138C22.4372 38.6209 22.4372 38.4601 22.4372 38.2672C22.4372 36.2738 21.6015 34.5055 20.2195 33.2837C19.7052 32.8014 19.7052 32.0298 20.2837 31.5797C22.4372 29.9399 23.6908 27.1106 23.0158 24.024C22.4372 21.3233 20.2837 19.1048 17.5838 18.4939C12.7305 17.3365 8.39136 21.0339 8.39136 25.6959V13.0281C8.93776 12.7066 9.48417 12.4172 10.0949 12.1922C10.3841 12.0636 10.6734 11.9671 10.9305 11.8707C11.252 11.7742 11.5734 11.6456 11.8948 11.5813C12.2162 11.4848 12.5376 11.4205 12.8269 11.3562C13.7911 11.1633 14.7875 11.0669 15.7839 11.0669C23.8836 11.0026 30.4726 17.5615 30.4726 25.6959Z"
            fill="#6834FF" />
    </g>
    <defs>
        <linearGradient id="paint0_linear_logo" x1="4.441" y1="1.48664" x2="7.5492" y2="36.9977"
            gradientUnits="userSpaceOnUse">
            <stop stop-color="#AB8FFF" />
            <stop offset="0.9897" stop-color="#693AF4" />
            <stop offset="1" stop-color="#693AF4" />
        </linearGradient>
        <linearGradient id="paint1_linear_logo" x1="4.12307" y1="-2.07133" x2="7.52764" y2="36.8259"
            gradientUnits="userSpaceOnUse">
            <stop stop-color="#AB8FFF" />
            <stop offset="0.9897" stop-color="#693AF4" />
            <stop offset="1" stop-color="#693AF4" />
        </linearGradient>
        <clipPath id="clip0_logo">
            <rect width="31" height="44" fill="white" />
        </clipPath>
    </defs>
</svg>