<svg width="880" height="163" viewBox="0 0 880 163" fill="none" xmlns="http://www.w3.org/2000/svg">
<path d="M8.5 126V37.25H40.125C54.7917 37.25 66.0417 41.125 73.875 48.875C81.7917 56.5417 85.75 67.5 85.75 81.75C85.75 95.9167 81.875 106.833 74.125 114.5C66.375 122.167 55.2917 126 40.875 126H8.5ZM30.25 108.25H40.125C48.125 108.25 54 106.083 57.75 101.75C61.5 97.4167 63.375 90.7083 63.375 81.625C63.375 72.5417 61.5 65.8333 57.75 61.5C54 57.1667 48.125 55 40.125 55H30.25V108.25ZM97.2451 126V37.25H160.995V55H118.995V72.625H159.495V90.375H118.995V108.25H161.995V126H97.2451ZM202.344 126L170.219 37.25H192.594L214.969 101.5L237.219 37.25H259.594L227.344 126H202.344ZM380.692 126V37.25H402.442V120.875L390.192 108.25H442.192V126H380.692ZM455.897 126V92.125L425.147 37.25H448.897L466.897 71.125L484.522 37.25H508.272L477.772 92.125V126H455.897ZM513.505 126V37.25H542.255L563.005 97.75L583.63 37.25H612.38V126H590.63V72.25L571.255 125.75H554.505L535.255 72.25V126H513.505ZM627.885 126V37.25H664.635C675.551 37.25 684.093 39.9167 690.26 45.25C696.51 50.5 699.635 57.7083 699.635 66.875C699.635 72.9583 698.218 78.25 695.385 82.75C692.635 87.1667 688.635 90.5833 683.385 93C678.135 95.4167 671.885 96.625 664.635 96.625H649.635V126H627.885ZM649.635 78.75H663.135C667.551 78.75 671.01 77.75 673.51 75.75C676.093 73.75 677.385 70.7917 677.385 66.875C677.385 63.0417 676.135 60.125 673.635 58.125C671.135 56.0417 667.635 55 663.135 55H649.635V78.75ZM748.474 128C740.807 128 734.14 126.625 728.474 123.875C722.89 121.042 718.557 117.042 715.474 111.875C712.39 106.708 710.849 100.625 710.849 93.625V37.125H732.599V93.625C732.599 98.875 733.932 102.958 736.599 105.875C739.349 108.792 743.307 110.25 748.474 110.25C753.64 110.25 757.557 108.792 760.224 105.875C762.974 102.958 764.349 98.875 764.349 93.625V37.125H786.099V93.625C786.099 100.625 784.557 106.708 781.474 111.875C778.39 117.042 774.015 121.042 768.349 123.875C762.765 126.625 756.14 128 748.474 128ZM837.85 128C829.933 128 823.141 126.708 817.475 124.125C811.891 121.542 807.516 117.917 804.35 113.25C801.266 108.5 799.516 102.917 799.1 96.5L820.85 95.5C821.266 98.6667 822.183 101.375 823.6 103.625C825.016 105.875 826.891 107.583 829.225 108.75C831.641 109.917 834.6 110.5 838.1 110.5C840.933 110.5 843.308 110.167 845.225 109.5C847.225 108.833 848.725 107.833 849.725 106.5C850.808 105.167 851.35 103.5 851.35 101.5C851.35 99.6667 850.891 98.0833 849.975 96.75C849.141 95.3333 847.433 94.0833 844.85 93C842.35 91.8333 838.558 90.7083 833.475 89.625C825.641 87.9583 819.308 86.0417 814.475 83.875C809.725 81.625 806.225 78.8333 803.975 75.5C801.808 72.0833 800.725 67.75 800.725 62.5C800.725 57.0833 802.1 52.3333 804.85 48.25C807.6 44.1667 811.558 41 816.725 38.75C821.891 36.4167 828.058 35.25 835.225 35.25C842.891 35.25 849.308 36.5833 854.475 39.25C859.725 41.8333 863.808 45.4167 866.725 50C869.641 54.5833 871.391 59.875 871.975 65.875L850.475 66.875C850.225 63.9583 849.433 61.4583 848.1 59.375C846.85 57.2917 845.1 55.6667 842.85 54.5C840.683 53.3333 838.058 52.75 834.975 52.75C831.141 52.75 828.1 53.5833 825.85 55.25C823.683 56.9167 822.6 59.0833 822.6 61.75C822.6 63.8333 823.1 65.5417 824.1 66.875C825.183 68.2083 826.933 69.375 829.35 70.375C831.766 71.2917 835.141 72.1667 839.475 73C847.975 74.5833 854.683 76.6667 859.6 79.25C864.516 81.8333 868.016 84.875 870.1 88.375C872.183 91.875 873.225 95.9167 873.225 100.5C873.225 106.167 871.808 111.083 868.975 115.25C866.141 119.333 862.058 122.5 856.725 124.75C851.475 126.917 845.183 128 837.85 128Z" fill="url(#paint0_linear_9_121)"/>
<path d="M8.5 126H8V126.5H8.5V126ZM8.5 37.25V36.75H8V37.25H8.5ZM73.875 48.875L73.5233 49.2305L73.5272 49.2342L73.875 48.875ZM74.125 114.5L74.4766 114.855L74.4766 114.855L74.125 114.5ZM30.25 108.25H29.75V108.75H30.25V108.25ZM57.75 101.75L57.3719 101.423L57.3719 101.423L57.75 101.75ZM57.75 61.5L57.3719 61.8272L57.3719 61.8272L57.75 61.5ZM30.25 55V54.5H29.75V55H30.25ZM9 126V37.25H8V126H9ZM8.5 37.75H40.125V36.75H8.5V37.75ZM40.125 37.75C54.705 37.75 65.8114 41.6005 73.5233 49.2304L74.2267 48.5196C66.272 40.6495 54.8784 36.75 40.125 36.75V37.75ZM73.5272 49.2342C81.3203 56.7812 85.25 67.5937 85.25 81.75H86.25C86.25 67.4062 82.2631 56.3022 74.2228 48.5158L73.5272 49.2342ZM85.25 81.75C85.25 95.8249 81.4024 106.598 73.7734 114.145L74.4766 114.855C82.3476 107.069 86.25 96.0084 86.25 81.75H85.25ZM73.7734 114.145C66.1441 121.692 55.2039 125.5 40.875 125.5V126.5C55.3794 126.5 66.6059 122.642 74.4766 114.855L73.7734 114.145ZM40.875 125.5H8.5V126.5H40.875V125.5ZM30.25 108.75H40.125V107.75H30.25V108.75ZM40.125 108.75C48.2104 108.75 54.25 106.559 58.1281 102.077L57.3719 101.423C53.75 105.608 48.0396 107.75 40.125 107.75V108.75ZM58.1281 102.077C61.9914 97.6129 63.875 90.762 63.875 81.625H62.875C62.875 90.6547 61.0086 97.2204 57.3719 101.423L58.1281 102.077ZM63.875 81.625C63.875 72.488 61.9914 65.6371 58.1281 61.1728L57.3719 61.8272C61.0086 66.0296 62.875 72.5953 62.875 81.625H63.875ZM58.1281 61.1728C54.25 56.6914 48.2104 54.5 40.125 54.5V55.5C48.0396 55.5 53.75 57.6419 57.3719 61.8272L58.1281 61.1728ZM40.125 54.5H30.25V55.5H40.125V54.5ZM29.75 55V108.25H30.75V55H29.75ZM97.2451 126H96.7451V126.5H97.2451V126ZM97.2451 37.25V36.75H96.7451V37.25H97.2451ZM160.995 37.25H161.495V36.75H160.995V37.25ZM160.995 55V55.5H161.495V55H160.995ZM118.995 55V54.5H118.495V55H118.995ZM118.995 72.625H118.495V73.125H118.995V72.625ZM159.495 72.625H159.995V72.125H159.495V72.625ZM159.495 90.375V90.875H159.995V90.375H159.495ZM118.995 90.375V89.875H118.495V90.375H118.995ZM118.995 108.25H118.495V108.75H118.995V108.25ZM161.995 108.25H162.495V107.75H161.995V108.25ZM161.995 126V126.5H162.495V126H161.995ZM97.7451 126V37.25H96.7451V126H97.7451ZM97.2451 37.75H160.995V36.75H97.2451V37.75ZM160.495 37.25V55H161.495V37.25H160.495ZM160.995 54.5H118.995V55.5H160.995V54.5ZM118.495 55V72.625H119.495V55H118.495ZM118.995 73.125H159.495V72.125H118.995V73.125ZM158.995 72.625V90.375H159.995V72.625H158.995ZM159.495 89.875H118.995V90.875H159.495V89.875ZM118.495 90.375V108.25H119.495V90.375H118.495ZM118.995 108.75H161.995V107.75H118.995V108.75ZM161.495 108.25V126H162.495V108.25H161.495ZM161.995 125.5H97.2451V126.5H161.995V125.5ZM202.344 126L201.874 126.17L201.993 126.5H202.344V126ZM170.219 37.25V36.75H169.506L169.749 37.4202L170.219 37.25ZM192.594 37.25L193.066 37.0856L192.949 36.75H192.594V37.25ZM214.969 101.5L214.497 101.664L214.97 103.024L215.441 101.664L214.969 101.5ZM237.219 37.25V36.75H236.863L236.746 37.0864L237.219 37.25ZM259.594 37.25L260.064 37.4208L260.307 36.75H259.594V37.25ZM227.344 126V126.5H227.694L227.814 126.171L227.344 126ZM202.814 125.83L170.689 37.0798L169.749 37.4202L201.874 126.17L202.814 125.83ZM170.219 37.75H192.594V36.75H170.219V37.75ZM192.122 37.4144L214.497 101.664L215.441 101.336L193.066 37.0856L192.122 37.4144ZM215.441 101.664L237.691 37.4136L236.746 37.0864L214.496 101.336L215.441 101.664ZM237.219 37.75H259.594V36.75H237.219V37.75ZM259.124 37.0792L226.874 125.829L227.814 126.171L260.064 37.4208L259.124 37.0792ZM227.344 125.5H202.344V126.5H227.344V125.5ZM380.692 126H380.192V126.5H380.692V126ZM380.692 37.25V36.75H380.192V37.25H380.692ZM402.442 37.25H402.942V36.75H402.442V37.25ZM402.442 120.875L402.084 121.223L402.942 122.108V120.875H402.442ZM390.192 108.25V107.75H389.011L389.834 108.598L390.192 108.25ZM442.192 108.25H442.692V107.75H442.192V108.25ZM442.192 126V126.5H442.692V126H442.192ZM381.192 126V37.25H380.192V126H381.192ZM380.692 37.75H402.442V36.75H380.692V37.75ZM401.942 37.25V120.875H402.942V37.25H401.942ZM402.801 120.527L390.551 107.902L389.834 108.598L402.084 121.223L402.801 120.527ZM390.192 108.75H442.192V107.75H390.192V108.75ZM441.692 108.25V126H442.692V108.25H441.692ZM442.192 125.5H380.692V126.5H442.192V125.5ZM455.897 126H455.397V126.5H455.897V126ZM455.897 92.125H456.397V91.9945L456.334 91.8806L455.897 92.125ZM425.147 37.25V36.75H424.294L424.711 37.4944L425.147 37.25ZM448.897 37.25L449.339 37.0154L449.198 36.75H448.897V37.25ZM466.897 71.125L466.456 71.3596L466.902 72.1993L467.341 71.3558L466.897 71.125ZM484.522 37.25V36.75H484.219L484.079 37.0192L484.522 37.25ZM508.272 37.25L508.709 37.4929L509.122 36.75H508.272V37.25ZM477.772 92.125L477.335 91.8821L477.272 91.9954V92.125H477.772ZM477.772 126V126.5H478.272V126H477.772ZM456.397 126V92.125H455.397V126H456.397ZM456.334 91.8806L425.584 37.0056L424.711 37.4944L455.461 92.3694L456.334 91.8806ZM425.147 37.75H448.897V36.75H425.147V37.75ZM448.456 37.4846L466.456 71.3596L467.339 70.8904L449.339 37.0154L448.456 37.4846ZM467.341 71.3558L484.966 37.4808L484.079 37.0192L466.454 70.8942L467.341 71.3558ZM484.522 37.75H508.272V36.75H484.522V37.75ZM507.835 37.0071L477.335 91.8821L478.209 92.3679L508.709 37.4929L507.835 37.0071ZM477.272 92.125V126H478.272V92.125H477.272ZM477.772 125.5H455.897V126.5H477.772V125.5ZM513.505 126H513.005V126.5H513.505V126ZM513.505 37.25V36.75H513.005V37.25H513.505ZM542.255 37.25L542.728 37.0878L542.612 36.75H542.255V37.25ZM563.005 97.75L562.532 97.9122L563.006 99.2954L563.478 97.9113L563.005 97.75ZM583.63 37.25V36.75H583.272L583.157 37.0887L583.63 37.25ZM612.38 37.25H612.88V36.75H612.38V37.25ZM612.38 126V126.5H612.88V126H612.38ZM590.63 126H590.13V126.5H590.63V126ZM590.63 72.25H591.13L590.16 72.0797L590.63 72.25ZM571.255 125.75V126.25H571.606L571.725 125.92L571.255 125.75ZM554.505 125.75L554.034 125.919L554.153 126.25H554.505V125.75ZM535.255 72.25L535.725 72.0807L534.755 72.25H535.255ZM535.255 126V126.5H535.755V126H535.255ZM514.005 126V37.25H513.005V126H514.005ZM513.505 37.75H542.255V36.75H513.505V37.75ZM541.782 37.4122L562.532 97.9122L563.478 97.5878L542.728 37.0878L541.782 37.4122ZM563.478 97.9113L584.103 37.4113L583.157 37.0887L562.532 97.5887L563.478 97.9113ZM583.63 37.75H612.38V36.75H583.63V37.75ZM611.88 37.25V126H612.88V37.25H611.88ZM612.38 125.5H590.63V126.5H612.38V125.5ZM591.13 126V72.25H590.13V126H591.13ZM590.16 72.0797L570.785 125.58L571.725 125.92L591.1 72.4203L590.16 72.0797ZM571.255 125.25H554.505V126.25H571.255V125.25ZM554.975 125.581L535.725 72.0807L534.784 72.4193L554.034 125.919L554.975 125.581ZM534.755 72.25V126H535.755V72.25H534.755ZM535.255 125.5H513.505V126.5H535.255V125.5ZM627.885 126H627.385V126.5H627.885V126ZM627.885 37.25V36.75H627.385V37.25H627.885ZM690.26 45.25L689.933 45.6282L689.938 45.6328L690.26 45.25ZM695.385 82.75L694.962 82.4836L694.96 82.4857L695.385 82.75ZM683.385 93L683.594 93.4542L683.594 93.4542L683.385 93ZM649.635 96.625V96.125H649.135V96.625H649.635ZM649.635 126V126.5H650.135V126H649.635ZM649.635 78.75H649.135V79.25H649.635V78.75ZM673.51 75.75L673.204 75.3546L673.197 75.3596L673.51 75.75ZM673.635 58.125L673.315 58.5092L673.322 58.5154L673.635 58.125ZM649.635 55V54.5H649.135V55H649.635ZM628.385 126V37.25H627.385V126H628.385ZM627.885 37.75H664.635V36.75H627.885V37.75ZM664.635 37.75C675.472 37.75 683.884 40.3967 689.933 45.6282L690.587 44.8718C684.302 39.4366 675.63 36.75 664.635 36.75V37.75ZM689.938 45.6328C696.06 50.7754 699.135 57.8356 699.135 66.875H700.135C700.135 57.5811 696.959 50.2245 690.581 44.8671L689.938 45.6328ZM699.135 66.875C699.135 72.878 697.738 78.0744 694.962 82.4836L695.808 83.0164C698.698 78.4256 700.135 73.0387 700.135 66.875H699.135ZM694.96 82.4857C692.268 86.8103 688.347 90.1653 683.176 92.5458L683.594 93.4542C688.922 91.0013 693.002 87.523 695.809 83.0143L694.96 82.4857ZM683.176 92.5458C678.006 94.9256 671.83 96.125 664.635 96.125V97.125C671.939 97.125 678.264 95.9077 683.594 93.4542L683.176 92.5458ZM664.635 96.125H649.635V97.125H664.635V96.125ZM649.135 96.625V126H650.135V96.625H649.135ZM649.635 125.5H627.885V126.5H649.635V125.5ZM649.635 79.25H663.135V78.25H649.635V79.25ZM663.135 79.25C667.622 79.25 671.205 78.234 673.822 76.1404L673.197 75.3596C670.814 77.2659 667.481 78.25 663.135 78.25V79.25ZM673.816 76.1454C676.546 74.0314 677.885 70.912 677.885 66.875H676.885C676.885 70.6714 675.64 73.4686 673.204 75.3546L673.816 76.1454ZM677.885 66.875C677.885 62.9231 676.59 59.8485 673.947 57.7346L673.322 58.5154C675.68 60.4015 676.885 63.1602 676.885 66.875H677.885ZM673.955 57.7409C671.336 55.5584 667.707 54.5 663.135 54.5V55.5C667.562 55.5 670.934 56.5249 673.315 58.5091L673.955 57.7409ZM663.135 54.5H649.635V55.5H663.135V54.5ZM649.135 55V78.75H650.135V55H649.135ZM728.474 123.875L728.247 124.321L728.255 124.325L728.474 123.875ZM715.474 111.875L715.044 112.131L715.044 112.131L715.474 111.875ZM710.849 37.125V36.625H710.349V37.125H710.849ZM732.599 37.125H733.099V36.625H732.599V37.125ZM736.599 105.875L736.23 106.212L736.235 106.218L736.599 105.875ZM760.224 105.875L759.86 105.532L759.855 105.538L760.224 105.875ZM764.349 37.125V36.625H763.849V37.125H764.349ZM786.099 37.125H786.599V36.625H786.099V37.125ZM781.474 111.875L781.903 112.131L781.903 112.131L781.474 111.875ZM768.349 123.875L768.57 124.324L768.572 124.322L768.349 123.875ZM748.474 127.5C740.866 127.5 734.277 126.136 728.692 123.425L728.255 124.325C734.003 127.114 740.747 128.5 748.474 128.5V127.5ZM728.7 123.429C723.197 120.637 718.936 116.701 715.903 111.619L715.044 112.131C718.178 117.382 722.583 121.447 728.247 124.321L728.7 123.429ZM715.903 111.619C712.873 106.541 711.349 100.55 711.349 93.625H710.349C710.349 100.7 711.908 106.875 715.044 112.131L715.903 111.619ZM711.349 93.625V37.125H710.349V93.625H711.349ZM710.849 37.625H732.599V36.625H710.849V37.625ZM732.099 37.125V93.625H733.099V37.125H732.099ZM732.099 93.625C732.099 98.958 733.454 103.177 736.23 106.212L736.968 105.538C734.41 102.74 733.099 98.792 733.099 93.625H732.099ZM736.235 106.218C739.105 109.262 743.211 110.75 748.474 110.75V109.75C743.403 109.75 739.593 108.322 736.962 105.532L736.235 106.218ZM748.474 110.75C753.735 110.75 757.804 109.262 760.593 106.212L759.855 105.538C757.31 108.321 753.545 109.75 748.474 109.75V110.75ZM760.587 106.218C763.449 103.183 764.849 98.9618 764.849 93.625H763.849C763.849 98.7882 762.498 102.734 759.86 105.532L760.587 106.218ZM764.849 93.625V37.125H763.849V93.625H764.849ZM764.349 37.625H786.099V36.625H764.349V37.625ZM785.599 37.125V93.625H786.599V37.125H785.599ZM785.599 93.625C785.599 100.55 784.074 106.541 781.044 111.619L781.903 112.131C785.04 106.875 786.599 100.7 786.599 93.625H785.599ZM781.044 111.619C778.013 116.699 773.711 120.635 768.125 123.428L768.572 124.322C774.32 121.449 778.768 117.384 781.903 112.131L781.044 111.619ZM768.128 123.426C762.627 126.136 756.081 127.5 748.474 127.5V128.5C756.199 128.5 762.903 127.114 768.57 124.324L768.128 123.426ZM817.475 124.125L817.265 124.579L817.267 124.58L817.475 124.125ZM804.35 113.25L803.93 113.522L803.936 113.531L804.35 113.25ZM799.1 96.5L799.077 96.0005L798.568 96.0239L798.601 96.5324L799.1 96.5ZM820.85 95.5L821.345 95.4348L821.285 94.9794L820.827 95.0005L820.85 95.5ZM823.6 103.625L824.023 103.359L824.023 103.359L823.6 103.625ZM829.225 108.75L829.001 109.197L829.007 109.2L829.225 108.75ZM845.225 109.5L845.066 109.026L845.06 109.028L845.225 109.5ZM849.725 106.5L849.337 106.185L849.33 106.192L849.325 106.2L849.725 106.5ZM849.975 96.75L849.544 97.0035L849.553 97.0187L849.563 97.0333L849.975 96.75ZM844.85 93L844.638 93.4531L844.647 93.4573L844.656 93.4611L844.85 93ZM833.475 89.625L833.579 89.136L833.579 89.1359L833.475 89.625ZM814.475 83.875L814.261 84.327L814.27 84.3313L814.475 83.875ZM803.975 75.5L803.552 75.7678L803.556 75.7738L803.56 75.7797L803.975 75.5ZM804.85 48.25L804.435 47.9707L804.435 47.9707L804.85 48.25ZM816.725 38.75L816.924 39.2085L816.93 39.2057L816.725 38.75ZM854.475 39.25L854.245 39.6944L854.254 39.6986L854.475 39.25ZM866.725 50L866.303 50.2684L866.303 50.2684L866.725 50ZM871.975 65.875L871.998 66.3745L872.523 66.35L872.472 65.8266L871.975 65.875ZM850.475 66.875L849.976 66.9177L850.018 67.3968L850.498 67.3745L850.475 66.875ZM848.1 59.375L847.671 59.6322L847.675 59.6384L847.678 59.6445L848.1 59.375ZM842.85 54.5L842.613 54.9403L842.619 54.9439L842.85 54.5ZM825.85 55.25L825.552 54.8481L825.545 54.8537L825.85 55.25ZM824.1 66.875L823.7 67.175L823.705 67.1828L823.712 67.1903L824.1 66.875ZM829.35 70.375L829.158 70.837L829.165 70.8399L829.172 70.8425L829.35 70.375ZM839.475 73L839.38 73.491L839.383 73.4915L839.475 73ZM859.6 79.25L859.367 79.6926L859.367 79.6926L859.6 79.25ZM870.1 88.375L869.67 88.6307L869.67 88.6307L870.1 88.375ZM868.975 115.25L869.385 115.535L869.388 115.531L868.975 115.25ZM856.725 124.75L856.915 125.212L856.919 125.211L856.725 124.75ZM837.85 127.5C829.986 127.5 823.268 126.217 817.682 123.67L817.267 124.58C823.014 127.2 829.88 128.5 837.85 128.5V127.5ZM817.685 123.671C812.176 121.122 807.874 117.554 804.763 112.969L803.936 113.531C807.158 118.279 811.607 121.961 817.265 124.579L817.685 123.671ZM804.769 112.978C801.738 108.309 800.01 102.811 799.599 96.4676L798.601 96.5324C799.022 103.023 800.794 108.691 803.93 113.522L804.769 112.978ZM799.123 96.9995L820.873 95.9995L820.827 95.0005L799.077 96.0005L799.123 96.9995ZM820.354 95.5652C820.778 98.7892 821.714 101.569 823.176 103.891L824.023 103.359C822.651 101.181 821.754 98.5441 821.345 95.4348L820.354 95.5652ZM823.176 103.891C824.641 106.217 826.584 107.989 829.001 109.197L829.448 108.303C827.198 107.178 825.392 105.533 824.023 103.359L823.176 103.891ZM829.007 109.2C831.509 110.408 834.546 111 838.1 111V110C834.653 110 831.773 109.425 829.442 108.3L829.007 109.2ZM838.1 111C840.968 111 843.403 110.663 845.389 109.972L845.06 109.028C843.213 109.67 840.897 110 838.1 110V111ZM845.383 109.974C847.454 109.284 849.049 108.234 850.125 106.8L849.325 106.2C848.4 107.433 846.996 108.383 845.066 109.026L845.383 109.974ZM850.113 106.815C851.28 105.379 851.85 103.595 851.85 101.5H850.85C850.85 103.405 850.336 104.955 849.337 106.185L850.113 106.815ZM851.85 101.5C851.85 99.5795 851.368 97.8942 850.387 96.4667L849.563 97.0333C850.415 98.2725 850.85 99.7539 850.85 101.5H851.85ZM850.406 96.4965C849.491 94.9413 847.663 93.6375 845.043 92.5389L844.656 93.4611C847.203 94.5292 848.792 95.7253 849.544 97.0035L850.406 96.4965ZM845.061 92.5469C842.509 91.3559 838.673 90.2216 833.579 89.136L833.37 90.114C838.443 91.1951 842.19 92.3108 844.638 93.4531L845.061 92.5469ZM833.579 89.1359C825.764 87.4733 819.468 85.5656 814.679 83.4187L814.27 84.3313C819.148 86.5177 825.518 88.4434 833.371 90.1141L833.579 89.1359ZM814.689 83.4231C809.995 81.2 806.576 78.4598 804.389 75.2203L803.56 75.7797C805.873 79.2068 809.454 82.05 814.261 84.3269L814.689 83.4231ZM804.397 75.2322C802.294 71.9162 801.225 67.683 801.225 62.5H800.225C800.225 67.817 801.322 72.2504 803.552 75.7678L804.397 75.2322ZM801.225 62.5C801.225 57.1724 802.575 52.5219 805.264 48.5293L804.435 47.9707C801.624 52.1448 800.225 56.9942 800.225 62.5H801.225ZM805.264 48.5293C807.954 44.5359 811.832 41.426 816.924 39.2084L816.525 38.2916C811.284 40.574 807.245 43.7975 804.435 47.9707L805.264 48.5293ZM816.93 39.2057C822.018 36.9082 828.111 35.75 835.225 35.75V34.75C828.005 34.75 821.765 35.9251 816.519 38.2943L816.93 39.2057ZM835.225 35.75C842.836 35.75 849.168 37.074 854.245 39.6943L854.704 38.8057C849.447 36.0927 842.947 34.75 835.225 34.75V35.75ZM854.254 39.6986C859.428 42.2447 863.439 45.7684 866.303 50.2684L867.146 49.7316C864.177 45.0649 860.021 41.422 854.695 38.8014L854.254 39.6986ZM866.303 50.2684C869.173 54.7784 870.9 59.993 871.477 65.9234L872.472 65.8266C871.882 59.757 870.11 54.3883 867.146 49.7316L866.303 50.2684ZM871.951 65.3755L850.451 66.3755L850.498 67.3745L871.998 66.3745L871.951 65.3755ZM850.973 66.8323C850.717 63.8497 849.905 61.2685 848.521 59.1055L847.678 59.6445C848.961 61.6481 849.732 64.067 849.976 66.9177L850.973 66.8323ZM848.528 59.1177C847.229 56.9515 845.408 55.2635 843.08 54.0561L842.619 54.9439C844.791 56.0698 846.471 57.6318 847.671 59.6322L848.528 59.1177ZM843.087 54.0598C840.831 52.8452 838.12 52.25 834.975 52.25V53.25C837.996 53.25 840.535 53.8215 842.613 54.9402L843.087 54.0598ZM834.975 52.25C831.073 52.25 827.915 53.098 825.552 54.8482L826.147 55.6518C828.284 54.0687 831.21 53.25 834.975 53.25V52.25ZM825.545 54.8537C823.259 56.6122 822.1 58.9236 822.1 61.75H823.1C823.1 59.2431 824.107 57.2211 826.154 55.6463L825.545 54.8537ZM822.1 61.75C822.1 63.9141 822.62 65.7355 823.7 67.175L824.5 66.575C823.579 65.3479 823.1 63.7526 823.1 61.75H822.1ZM823.712 67.1903C824.868 68.6132 826.702 69.8204 829.158 70.837L829.541 69.913C827.164 68.9296 825.498 67.8035 824.488 66.5597L823.712 67.1903ZM829.172 70.8425C831.628 71.774 835.035 72.6555 839.38 73.491L839.569 72.509C835.247 71.6779 831.904 70.8093 829.527 69.9075L829.172 70.8425ZM839.383 73.4915C847.858 75.0702 854.512 77.1417 859.367 79.6926L859.832 78.8074C854.854 76.1916 848.091 74.0964 839.566 72.5085L839.383 73.4915ZM859.367 79.6926C864.231 82.2481 867.648 85.2339 869.67 88.6307L870.529 88.1193C868.385 84.5161 864.802 81.4186 859.832 78.8074L859.367 79.6926ZM869.67 88.6307C871.702 92.044 872.725 95.9952 872.725 100.5H873.725C873.725 95.8382 872.664 91.706 870.529 88.1193L869.67 88.6307ZM872.725 100.5C872.725 106.079 871.331 110.895 868.561 114.969L869.388 115.531C872.285 111.271 873.725 106.254 873.725 100.5H872.725ZM868.564 114.965C865.793 118.958 861.791 122.07 856.53 124.289L856.919 125.211C862.325 122.93 866.49 119.708 869.385 115.535L868.564 114.965ZM856.534 124.288C851.359 126.423 845.136 127.5 837.85 127.5V128.5C845.23 128.5 851.59 127.41 856.915 125.212L856.534 124.288Z" fill="url(#paint1_linear_9_121)"/>
<path d="M311.686 37.052C303.748 37.409 296.71 39.2564 290.571 42.5941C283.804 46.3316 278.487 51.5641 274.62 58.2916C271.217 64.3812 269.354 71.4331 269.031 79.4474C273.816 78.3827 279.443 76.8404 284.756 74.673C289.999 72.5343 294.935 69.7869 298.454 66.2891C301.972 62.7912 304.736 57.8836 306.887 52.6716C309.065 47.3947 310.615 41.8058 311.686 37.052Z" fill="url(#paint2_linear_9_121)"/>
<path d="M269 83.5808C269.207 91.9965 271.081 99.3711 274.62 105.705C278.487 112.432 283.804 117.665 290.571 121.402C296.765 124.77 303.875 126.62 311.901 126.954C310.826 122.001 309.215 116.004 306.887 110.364C304.736 105.152 301.972 100.244 298.454 96.7461C294.935 93.2483 289.999 90.5009 284.756 88.3622C279.432 86.1901 273.792 84.6458 269 83.5808Z" fill="url(#paint3_linear_9_121)"/>
<path d="M315.632 127C324.321 126.861 331.918 124.995 338.423 121.402C345.19 117.665 350.453 112.432 354.212 105.705C357.898 99.2922 359.827 91.8126 360 83.2658C354.921 84.3334 348.662 85.9656 342.787 88.3622C337.544 90.5009 332.608 93.2483 329.09 96.7461C329.001 96.8346 328.912 96.924 328.824 97.0142C328.29 98.1922 327.677 99.2736 326.983 100.259C326.091 101.572 325.082 102.684 323.957 103.594C322.723 105.721 321.627 108.011 320.656 110.364C318.321 116.022 316.707 122.038 315.632 127Z" fill="url(#paint4_linear_9_121)"/>
<path d="M327.121 64.0954C327.075 64.0292 327.029 63.9633 326.983 63.8979C326.582 63.292 326.157 62.7279 325.708 62.2059C323.735 59.3649 322.065 56.0835 320.656 52.6716C318.47 47.3755 316.917 41.7651 315.845 37C324.445 37.166 331.971 39.0307 338.423 42.5941C345.19 46.3316 350.453 51.5641 354.212 58.2916C357.759 64.4611 359.679 71.6184 359.973 79.7636C354.898 78.696 348.651 77.0653 342.787 74.673C337.544 72.5343 332.608 69.7869 329.09 66.2891C328.405 65.6085 327.749 64.8746 327.121 64.0954Z" fill="url(#paint5_linear_9_121)"/>
<path d="M311.686 37.052C303.748 37.409 296.71 39.2564 290.571 42.5941C283.804 46.3316 278.487 51.5641 274.62 58.2916C271.217 64.3812 269.354 71.4331 269.031 79.4474C273.816 78.3827 279.443 76.8404 284.756 74.673C289.999 72.5343 294.935 69.7869 298.454 66.2891C301.972 62.7912 304.736 57.8836 306.887 52.6716C309.065 47.3947 310.615 41.8058 311.686 37.052Z" stroke="url(#paint6_linear_9_121)"/>
<path d="M269 83.5808C269.207 91.9965 271.081 99.3711 274.62 105.705C278.487 112.432 283.804 117.665 290.571 121.402C296.765 124.77 303.875 126.62 311.901 126.954C310.826 122.001 309.215 116.004 306.887 110.364C304.736 105.152 301.972 100.244 298.454 96.7461C294.935 93.2483 289.999 90.5009 284.756 88.3622C279.432 86.1901 273.792 84.6458 269 83.5808Z" stroke="url(#paint7_linear_9_121)"/>
<path d="M315.632 127C324.321 126.861 331.918 124.995 338.423 121.402C345.19 117.665 350.453 112.432 354.212 105.705C357.898 99.2922 359.827 91.8126 360 83.2658C354.921 84.3334 348.662 85.9656 342.787 88.3622C337.544 90.5009 332.608 93.2483 329.09 96.7461C329.001 96.8346 328.912 96.924 328.824 97.0142C328.29 98.1922 327.677 99.2736 326.983 100.259C326.091 101.572 325.082 102.684 323.957 103.594C322.723 105.721 321.627 108.011 320.656 110.364C318.321 116.022 316.707 122.038 315.632 127Z" stroke="url(#paint8_linear_9_121)"/>
<path d="M327.121 64.0954C327.075 64.0292 327.029 63.9633 326.983 63.8979C326.582 63.292 326.157 62.7279 325.708 62.2059C323.735 59.3649 322.065 56.0835 320.656 52.6716C318.47 47.3755 316.917 41.7651 315.845 37C324.445 37.166 331.971 39.0307 338.423 42.5941C345.19 46.3316 350.453 51.5641 354.212 58.2916C357.759 64.4611 359.679 71.6184 359.973 79.7636C354.898 78.696 348.651 77.0653 342.787 74.673C337.544 72.5343 332.608 69.7869 329.09 66.2891C328.405 65.6085 327.749 64.8746 327.121 64.0954Z" stroke="url(#paint9_linear_9_121)"/>
<defs>
<linearGradient id="paint0_linear_9_121" x1="-21.5" y1="126" x2="869.536" y2="-52.2948" gradientUnits="userSpaceOnUse">
<stop stop-color="#0066FF"/>
<stop offset="1" stop-color="#FF0062"/>
</linearGradient>
<linearGradient id="paint1_linear_9_121" x1="6.77061e-07" y1="126" x2="880" y2="-7.46754e-06" gradientUnits="userSpaceOnUse">
<stop stop-color="#0066FF"/>
<stop offset="1" stop-color="#FF0062"/>
</linearGradient>
<linearGradient id="paint2_linear_9_121" x1="-7.50001" y1="127" x2="311.246" y2="500.914" gradientUnits="userSpaceOnUse">
<stop stop-color="#0066FF"/>
<stop offset="1" stop-color="#FF0062"/>
</linearGradient>
<linearGradient id="paint3_linear_9_121" x1="-7.50001" y1="127" x2="311.246" y2="500.914" gradientUnits="userSpaceOnUse">
<stop stop-color="#0066FF"/>
<stop offset="1" stop-color="#FF0062"/>
</linearGradient>
<linearGradient id="paint4_linear_9_121" x1="-7.50001" y1="127" x2="311.246" y2="500.914" gradientUnits="userSpaceOnUse">
<stop stop-color="#0066FF"/>
<stop offset="1" stop-color="#FF0062"/>
</linearGradient>
<linearGradient id="paint5_linear_9_121" x1="-7.50001" y1="127" x2="311.246" y2="500.914" gradientUnits="userSpaceOnUse">
<stop stop-color="#0066FF"/>
<stop offset="1" stop-color="#FF0062"/>
</linearGradient>
<linearGradient id="paint6_linear_9_121" x1="-8.99999" y1="127" x2="626.039" y2="475.554" gradientUnits="userSpaceOnUse">
<stop stop-color="#0066FF"/>
<stop offset="1" stop-color="#FF0062"/>
</linearGradient>
<linearGradient id="paint7_linear_9_121" x1="-8.99999" y1="127" x2="626.039" y2="475.554" gradientUnits="userSpaceOnUse">
<stop stop-color="#0066FF"/>
<stop offset="1" stop-color="#FF0062"/>
</linearGradient>
<linearGradient id="paint8_linear_9_121" x1="-8.99999" y1="127" x2="626.039" y2="475.554" gradientUnits="userSpaceOnUse">
<stop stop-color="#0066FF"/>
<stop offset="1" stop-color="#FF0062"/>
</linearGradient>
<linearGradient id="paint9_linear_9_121" x1="-8.99999" y1="127" x2="626.039" y2="475.554" gradientUnits="userSpaceOnUse">
<stop stop-color="#0066FF"/>
<stop offset="1" stop-color="#FF0062"/>
</linearGradient>
</defs>
</svg>
